#N canvas 651 24 713 630 10;
#X obj 133 36 tgl 15 0 empty empty empty 17 7 0 10 -262144 -1 -1 0
1;
#X text 37 1 camera on/off;
#X obj 351 26 hsl 128 15 0 127 0 0 empty empty empty -2 -8 0 10 -262144
-1 -1 0 1;
#X obj 348 61 s noise_reduction;
#X obj 257 170 r noise_reduction;
#X obj 10 238 loadbang;
#N canvas 808 75 450 300 send_osc 0;
#X obj 96 43 inlet;
#X text 148 43 list;
#X obj 96 76 prepend send /coord;
#X obj 96 122 packOSC;
#X obj 96 209 udpsend;
#X msg 185 149 connect 127.0.0.1 57120;
#X obj 185 121 loadbang;
#X connect 0 0 2 0;
#X connect 2 0 3 0;
#X connect 3 0 4 0;
#X connect 5 0 4 0;
#X connect 6 0 5 0;
#X restore 433 559 pd send_osc;
#X text 409 117 reset [counter] on 'go';
#N canvas 0 0 566 432 recv_osc_toggle 0;
#X obj 68 33 udpreceive 57122;
#X obj 68 69 unpackOSC;
#X obj 68 106 pipelist;
#X obj 68 189 outlet;
#X obj 163 189 outlet;
#X obj 68 149 routeOSC /onOffSwitch /noiseReduction /handshake;
#X obj 258 301 packOSC;
#X obj 258 388 udpsend;
#X msg 330 349 connect 127.0.0.1 57120;
#X obj 330 316 loadbang;
#X text 411 160 handshaking at init;
#X obj 258 189 t b;
#X msg 258 228 /handshakeReply;
#X connect 0 0 1 0;
#X connect 1 0 2 0;
#X connect 1 1 2 1;
#X connect 2 0 5 0;
#X connect 5 0 3 0;
#X connect 5 1 4 0;
#X connect 5 2 11 0;
#X connect 6 0 7 0;
#X connect 8 0 7 0;
#X connect 9 0 8 0;
#X connect 11 0 12 0;
#X connect 12 0 6 0;
#X restore 161 3 pd recv_osc_toggle;
#X text 340 94 note: 125-130 ms is a lower bound for osc traffic here
;
#N canvas 68 21 486 335 camera_in 0;
#X obj -21 57 inlet;
#X text 12 11 bang;
#X obj 64 58 inlet;
#X text -41 28 also ctl msgs for camera;
#X text 105 56 1=blur \, 0=no;
#X obj 53 288 outlet;
#X obj 53 216 pix_video;
#X obj 77 173 gemhead;
#X obj -117 82 loadbang;
#X msg -117 112 colorspace Grey;
#X obj 53 251 pix_resize 320 240;
#X obj -8 96 route list float;
#X connect 0 0 11 0;
#X connect 6 0 10 0;
#X connect 7 0 6 0;
#X connect 8 0 9 0;
#X connect 10 0 5 0;
#X connect 11 0 6 0;
#X connect 11 1 7 0;
#X restore 127 105 pd camera_in;
#X obj 143 131 tgl 15 1 empty empty empty 17 7 0 10 -262144 -1 -1 1
1;
#X text 165 129 reverse?;
#X obj 100 154 shunt;
#X obj 127 206 pix_flip;
#X msg 172 180 horizontal;
#X obj 172 161 loadbang;
#X obj 127 237 pix_movement 0.1;
#X obj 22 554 pix_texture;
#X obj 22 587 rectangle 4 3;
#X obj 254 196 / 512;
#X obj 133 64 t f f;
#X obj 413 141 route 1 0;
#X obj 26 66 r to_camera;
#X obj 575 502 r to_gemwin;
#X msg 474 298 \; to_gemwin create \; to_camera driver 1 \; to_gemwin
1 \; to_camera 1;
#X msg 565 231 \; to_camera 0 \; to_gemwin 0 \; to_gemwin destroy;
#X obj 413 169 t b b b;
#X obj 22 527 pix_composite;
#X obj 222 468 r to_camera;
#X obj 130 560 pix_image black320x240.png;
#X obj 210 501 route float;
#X msg 11 264 0 320 0 240 106 80;
#X obj 155 533 gemhead;
#X obj 393 559 print;
#N canvas 0 0 703 569 analysis 0;
#X obj 86 35 inlet;
#X text 126 35 gemlist;
#X obj 86 73 t a a a a a a a a a a;
#X text 228 73 inelegant but no choice...;
#X obj 209 112 pixsliceblob 0 0 1;
#X obj 86 356 pix_blob;
#X obj 86 420 f;
#X obj 77 387 t b;
#X obj 417 505 outlet;
#X obj 195 139 pixsliceblob 106 0 2;
#X obj 181 166 pixsliceblob 212 0 3;
#X obj 168 193 pixsliceblob 0 80 4;
#X obj 154 220 pixsliceblob 106 80 5;
#X obj 140 245 pixsliceblob 212 80 6;
#X obj 127 270 pixsliceblob 0 160 7;
#X obj 113 296 pixsliceblob 106 160 8;
#X obj 99 323 pixsliceblob 212 160 9;
#X obj 100 450 pack -1 -1 -1 10;
#X connect 0 0 2 0;
#X connect 2 0 5 0;
#X connect 2 1 16 0;
#X connect 2 2 15 0;
#X connect 2 3 14 0;
#X connect 2 4 13 0;
#X connect 2 5 12 0;
#X connect 2 6 11 0;
#X connect 2 7 10 0;
#X connect 2 8 9 0;
#X connect 2 9 4 0;
#X connect 4 0 8 0;
#X connect 5 0 7 0;
#X connect 5 1 6 1;
#X connect 5 2 17 1;
#X connect 5 3 17 2;
#X connect 6 0 17 0;
#X connect 7 0 6 0;
#X connect 9 0 8 0;
#X connect 10 0 8 0;
#X connect 11 0 8 0;
#X connect 12 0 8 0;
#X connect 13 0 8 0;
#X connect 14 0 8 0;
#X connect 15 0 8 0;
#X connect 16 0 8 0;
#X connect 17 0 8 0;
#X restore 319 380 pd analysis;
#X obj 135 264 t a a;
#X obj 575 535 gemwin 3;
#X connect 0 0 21 0;
#X connect 2 0 3 0;
#X connect 4 0 20 0;
#X connect 5 0 32 0;
#X connect 8 0 0 0;
#X connect 8 1 2 0;
#X connect 10 0 13 0;
#X connect 11 0 13 1;
#X connect 13 0 17 0;
#X connect 13 1 14 0;
#X connect 14 0 17 0;
#X connect 15 0 14 0;
#X connect 16 0 15 0;
#X connect 17 0 36 0;
#X connect 18 0 19 0;
#X connect 20 0 17 1;
#X connect 21 0 10 0;
#X connect 21 1 22 0;
#X connect 22 0 27 0;
#X connect 22 1 26 0;
#X connect 23 0 10 0;
#X connect 24 0 37 0;
#X connect 27 0 25 0;
#X connect 28 0 18 0;
#X connect 29 0 31 0;
#X connect 30 0 28 1;
#X connect 31 0 33 0;
#X connect 33 0 30 0;
#X connect 35 0 6 0;
#X connect 36 0 28 0;
#X connect 36 1 35 0;
