#N canvas 651 24 713 630 10;
#X obj 133 36 tgl 15 0 empty empty empty 17 7 0 10 -262144 -1 -1 0
1;
#X text 37 1 camera on/off;
#X obj 351 26 hsl 128 15 0 127 0 0 empty empty empty -2 -8 0 10 -262144
-1 -1 1300 1;
#X obj 348 61 s noise_reduction;
#X obj 257 170 r noise_reduction;
#X obj 10 238 loadbang;
#N canvas 808 75 450 300 send_osc 0;
#X obj 96 43 inlet;
#X text 148 43 list;
#X obj 96 76 prepend send /coord;
#X obj 96 122 packOSC;
#X obj 96 209 udpsend;
#X msg 185 149 connect 127.0.0.1 57120;
#X obj 185 121 loadbang;
#X connect 0 0 2 0;
#X connect 2 0 3 0;
#X connect 3 0 4 0;
#X connect 5 0 4 0;
#X connect 6 0 5 0;
#X restore 433 559 pd send_osc;
#X text 409 117 reset [counter] on 'go';
#N canvas 0 0 566 432 recv_osc_toggle 0;
#X obj 68 33 udpreceive 57122;
#X obj 68 69 unpackOSC;
#X obj 68 106 pipelist;
#X obj 68 189 outlet;
#X obj 163 189 outlet;
#X obj 68 149 routeOSC /onOffSwitch /noiseReduction /handshake;
#X obj 258 301 packOSC;
#X obj 258 388 udpsend;
#X msg 330 349 connect 127.0.0.1 57120;
#X obj 330 316 loadbang;
#X text 411 160 handshaking at init;
#X obj 258 189 t b;
#X msg 258 228 /handshakeReply;
#X connect 0 0 1 0;
#X connect 1 0 2 0;
#X connect 1 1 2 1;
#X connect 2 0 5 0;
#X connect 5 0 3 0;
#X connect 5 1 4 0;
#X connect 5 2 11 0;
#X connect 6 0 7 0;
#X connect 8 0 7 0;
#X connect 9 0 8 0;
#X connect 11 0 12 0;
#X connect 12 0 6 0;
#X restore 161 3 pd recv_osc_toggle;
#X text 340 94 note: 125-130 ms is a lower bound for osc traffic here
;
#N canvas 68 21 486 335 camera_in 0;
#X obj -21 57 inlet;
#X text 12 11 bang;
#X obj 64 58 inlet;
#X text -41 28 also ctl msgs for camera;
#X text 105 56 1=blur \, 0=no;
#X obj 53 288 outlet;
#X obj 53 216 pix_video;
#X obj 77 173 gemhead;
#X obj -117 82 loadbang;
#X msg -117 112 colorspace Grey;
#X obj 53 251 pix_resize 320 240;
#X obj -8 96 route list float;
#X connect 0 0 11 0;
#X connect 6 0 10 0;
#X connect 7 0 6 0;
#X connect 8 0 9 0;
#X connect 10 0 5 0;
#X connect 11 0 6 0;
#X connect 11 1 7 0;
#X restore 127 105 pd camera_in;
#X obj 143 131 tgl 15 1 empty empty empty 17 7 0 10 -262144 -1 -1 1
1;
#X text 165 129 reverse?;
#X obj 100 154 shunt;
#X obj 127 206 pix_flip;
#X msg 172 180 horizontal;
#X obj 172 161 loadbang;
#X obj 127 237 pix_movement 0.1;
#X obj 135 476 pix_crop;
#X obj 255 376 t b b;
#X obj 162 405 unpack f f;
#N canvas 161 56 843 628 iter2d2 0;
#X obj 39 14 inlet;
#X obj 168 184 inlet;
#X obj 378 30 inlet;
#X obj 138 268 + 1;
#X obj 299 472 + 1;
#X obj 220 316 f;
#X obj 268 254 inlet;
#X obj 316 325 inlet;
#X obj 39 193 f;
#X obj 220 398 moses 999;
#X obj 209 513 pack;
#X obj 220 438 t f f;
#X obj 209 549 outlet;
#X obj 294 551 outlet;
#X msg 384 318 bang;
#X obj 39 246 moses 999;
#X obj 39 220 f;
#X msg 242 487 bang;
#X obj 39 272 t b f f;
#X text 417 259 3 trigs: 1-increment 2-pack (R) 3-bang inner loop;
#X text 351 438 2 trigs: 1-pack>out 2-increment;
#X text 251 413 moses exit --> bang outer loop;
#X text 379 516 2 outlets: 1-series of lists (x0 y0) (x0 y1) ... 2-bang
when all done;
#X text 462 333 This would be a simple nested loop in SC. Graphical
patching.... urrggghhh...;
#X obj 432 38 inlet;
#X text 462 62 6 inlets: 1: bang=go float=set outer loop start list=outer
start \, end \, inner start \, end \, step size 2:set outer loop end
3:set inner loop start 4:set inner loop end 5:set step size MUST bang
left inlet or no output;
#X obj 210 91 unpack f f f f f f;
#X obj 39 41 route reset bang float list;
#X text 82 577 'k \, i get it - i need a second f register for the
inner loop;
#X obj 220 371 f;
#X obj 312 276 r resetgate;
#X obj 6 151 r resetbang;
#X obj 204 286 bng 15 250 50 0 empty empty empty 17 7 0 10 -262144
-1 -1;
#X obj 220 343 gate 2;
#X msg 7 74 \; resetgate 2 \; resetbang bang \; resetgate 1;
#X connect 0 0 27 0;
#X connect 1 0 15 1;
#X connect 2 0 3 1;
#X connect 3 0 16 1;
#X connect 4 0 29 1;
#X connect 5 0 33 1;
#X connect 6 0 5 1;
#X connect 7 0 9 1;
#X connect 8 0 16 0;
#X connect 9 0 11 0;
#X connect 9 1 14 0;
#X connect 10 0 12 0;
#X connect 11 0 4 0;
#X connect 11 1 10 0;
#X connect 14 0 16 0;
#X connect 15 0 18 0;
#X connect 15 1 17 0;
#X connect 16 0 15 0;
#X connect 17 0 13 0;
#X connect 18 0 5 0;
#X connect 18 1 10 1;
#X connect 18 2 3 0;
#X connect 24 0 4 1;
#X connect 26 0 8 1;
#X connect 26 1 15 1;
#X connect 26 2 5 1;
#X connect 26 3 9 1;
#X connect 26 4 3 1;
#X connect 26 5 4 1;
#X connect 27 0 34 0;
#X connect 27 1 29 0;
#X connect 27 2 8 1;
#X connect 27 3 26 0;
#X connect 29 0 9 0;
#X connect 30 0 33 0;
#X connect 31 0 8 0;
#X connect 32 0 5 0;
#X connect 33 0 29 0;
#X connect 33 1 29 1;
#X restore 162 294 pd iter2d2;
#X msg 246 243 reset;
#X obj 325 407 pix_blob;
#X obj 347 342 loadbang;
#X obj 341 508 pack f f f f;
#X obj 325 317 t a b;
#X obj 22 554 pix_texture;
#X obj 22 587 rectangle 4 3;
#X obj 254 196 / 512;
#X msg 347 372 4;
#X obj 133 64 t f f;
#X obj 413 141 route 1 0;
#X obj 26 66 r to_camera;
#X obj 575 502 r to_gemwin;
#X msg 474 298 \; to_gemwin create \; to_camera driver 1 \; to_gemwin
1 \; to_camera 1;
#X msg 565 231 \; to_camera 0 \; to_gemwin 0 \; to_gemwin destroy;
#X obj 413 169 t b b b;
#X obj 22 527 pix_composite;
#X obj 222 468 r to_camera;
#X obj 130 560 pix_image black320x240.png;
#X obj 210 501 route float;
#X msg 236 405 106;
#X msg 11 264 0 320 0 240 106 80;
#X obj 155 533 gemhead;
#X msg 268 405 80;
#X obj 325 473 f;
#X obj 314 442 t b;
#X obj 393 559 print;
#X obj 389 431 r resetlist;
#X obj 341 535 t b l;
#X msg 341 583 \; resetlist -1;
#X obj 575 535 gemwin 30;
#X obj 219 321 t b b;
#X obj 102 502 s analysis;
#X obj 384 287 r analysis;
#X obj 102 406 gate 2;
#X obj 255 353 loadbang;
#X msg 192 354 1;
#X msg 100 370 2;
#X obj 75 446 t b a;
#X obj 421 470 counter 1 10;
#X obj 135 264 t a a b;
#X connect 0 0 31 0;
#X connect 2 0 3 0;
#X connect 4 0 29 0;
#X connect 5 0 43 0;
#X connect 5 0 59 0;
#X connect 8 0 0 0;
#X connect 8 1 2 0;
#X connect 10 0 13 0;
#X connect 11 0 13 1;
#X connect 13 0 17 0;
#X connect 13 1 14 0;
#X connect 14 0 17 0;
#X connect 15 0 14 0;
#X connect 16 0 15 0;
#X connect 17 0 62 0;
#X connect 18 0 54 0;
#X connect 19 0 42 0;
#X connect 19 1 45 0;
#X connect 20 0 18 4;
#X connect 20 1 18 3;
#X connect 21 0 20 0;
#X connect 21 1 53 0;
#X connect 22 0 21 0;
#X connect 23 0 47 0;
#X connect 23 1 46 1;
#X connect 23 2 25 1;
#X connect 23 3 25 2;
#X connect 24 0 30 0;
#X connect 25 0 50 0;
#X connect 26 0 23 0;
#X connect 26 1 61 0;
#X connect 27 0 28 0;
#X connect 29 0 17 1;
#X connect 30 0 23 1;
#X connect 31 0 10 0;
#X connect 31 1 32 0;
#X connect 32 0 37 0;
#X connect 32 1 36 0;
#X connect 33 0 10 0;
#X connect 34 0 52 0;
#X connect 37 0 35 0;
#X connect 37 1 22 0;
#X connect 37 2 61 2;
#X connect 38 0 27 0;
#X connect 39 0 41 0;
#X connect 40 0 38 1;
#X connect 41 0 44 0;
#X connect 42 0 18 1;
#X connect 43 0 21 0;
#X connect 44 0 40 0;
#X connect 45 0 18 2;
#X connect 46 0 25 0;
#X connect 47 0 46 0;
#X connect 49 0 25 2;
#X connect 49 0 25 1;
#X connect 49 0 46 1;
#X connect 50 0 51 0;
#X connect 50 1 6 0;
#X connect 53 0 58 0;
#X connect 53 1 22 0;
#X connect 55 0 26 0;
#X connect 56 0 60 0;
#X connect 56 1 18 0;
#X connect 57 0 19 0;
#X connect 58 0 56 0;
#X connect 59 0 56 0;
#X connect 60 0 59 0;
#X connect 60 1 54 0;
#X connect 61 0 25 3;
#X connect 62 0 38 0;
#X connect 62 1 56 1;
#X connect 62 2 21 0;
