#N canvas 662 324 450 300 10;
#X obj 104 157 pix_crop;
#X obj 188 43 t b b b b;
#X obj 93 79 inlet;
#X obj 213 79 float \$1;
#X obj 279 78 float \$2;
#X obj 39 115 pix_separator;
#X msg 145 78 106;
#X msg 180 80 80;
#X obj 188 16 loadbang;
#X obj 104 195 outlet;
#X connect 0 0 9 0;
#X connect 1 0 6 0;
#X connect 1 1 7 0;
#X connect 1 2 3 0;
#X connect 1 3 4 0;
#X connect 2 0 5 0;
#X connect 3 0 0 3;
#X connect 4 0 0 4;
#X connect 5 0 0 0;
#X connect 6 0 0 1;
#X connect 7 0 0 2;
#X connect 8 0 1 0;
